<?xml version="1.0" standalone="no"?>
<!DOCTYPE svg PUBLIC "-//W3C//DTD SVG 20010904//EN"
 "http://www.w3.org/TR/2001/REC-SVG-20010904/DTD/svg10.dtd">
<svg version="1.0" xmlns="http://www.w3.org/2000/svg"
 width="1024.000000pt" height="1024.000000pt" viewBox="0 0 1024.000000 1024.000000"
 preserveAspectRatio="xMidYMid meet">
<metadata>
Created by potrace 1.14, written by Peter Selinger 2001-2017
</metadata>
<g transform="translate(0.000000,1024.000000) scale(0.100000,-0.100000)"
fill="#000000" stroke="none">
<path d="M3317 10193 c-4 -3 -7 -55 -7 -114 l0 -108 -107 -3 -108 -3 2 -567 2
-567 -127 -3 -127 -3 0 -125 0 -125 105 -2 c58 -1 115 -2 128 -3 l22 0 0 -365
0 -365 110 0 110 0 0 -414 c0 -368 -2 -415 -16 -420 -9 -3 -119 -6 -245 -6
l-229 0 0 -115 0 -115 -115 0 -115 0 0 -105 0 -104 -122 -3 -123 -3 -3 -123
-3 -122 -99 3 -100 3 0 -123 0 -123 -141 0 -140 0 3 -315 3 -314 -130 -3 -130
-3 -3 -317 -2 -317 -128 -3 -127 -3 -3 -202 -2 -203 262 -2 263 -3 3 -139 3
-139 847 4 847 4 2 -120 c1 -66 2 -128 3 -137 0 -17 17 -18 210 -18 l210 0 0
135 0 135 130 0 130 0 0 -133 0 -132 1305 -2 1305 -2 0 133 0 133 170 8 c94 4
285 4 425 0 l254 -8 3 -126 3 -126 110 0 110 0 3 128 3 127 449 0 450 0 0 140
0 140 245 0 245 0 0 200 0 200 -110 0 -110 0 0 330 0 330 -140 0 -140 0 0 305
0 305 -125 0 -124 0 -3 128 -3 127 -72 3 -73 3 0 118 c0 86 -3 120 -12 123 -7
2 -59 4 -115 4 l-103 -1 0 103 0 102 -97 1 c-54 1 -109 2 -123 3 -24 1 -24 2
-28 106 -1 58 -5 111 -8 119 -4 11 -49 13 -262 10 l-257 -4 -3 188 -2 187
-140 0 -140 0 0 350 0 350 -130 0 -130 0 0 155 0 155 -277 2 -278 3 -3 213 -2
212 -400 0 -400 0 0 150 0 149 -112 3 -113 3 -5 535 -5 535 -147 3 -148 3 0
-121 0 -120 -125 0 -124 0 -3 -147 -3 -148 -467 -3 -468 -2 0 150 0 150 -125
0 -125 0 0 120 0 120 -118 0 c-65 0 -122 -3 -125 -7z m243 -563 l0 -300 -120
0 -120 0 0 300 0 300 120 0 120 0 0 -300z m1440 -360 l0 -150 -130 0 -130 0 0
150 0 150 130 0 130 0 0 -150z m270 -300 l0 -150 -120 0 -120 0 -1 73 c-1 39
-3 107 -5 150 l-3 77 125 0 124 0 0 -150z m-607 132 l77 -2 1 -282 c0 -156 3
-277 6 -270 3 9 40 12 135 12 l131 0 -5 -460 c-2 -253 -7 -462 -10 -465 -3 -4
-61 -7 -129 -8 l-123 -2 -1 -125 0 -125 132 -3 132 -3 3 116 3 116 138 2 137
2 0 -292 0 -293 -140 0 -140 0 0 -125 0 -125 -135 0 -135 0 0 -105 0 -105
-460 0 -461 1 1 217 c1 119 -1 224 -5 232 -3 9 -4 92 -3 185 l3 170 98 3 97 3
0 129 0 130 -225 0 -225 0 0 110 0 110 -120 0 -120 0 0 115 0 115 243 2 242 3
3 148 3 147 104 0 105 0 0 95 0 94 128 3 127 3 3 262 2 262 128 3 c70 2 138 3
152 2 14 0 60 -2 103 -2z m857 -622 l0 -90 143 0 144 0 6 -532 c4 -293 7 -658
7 -810 l0 -278 -155 0 -155 0 0 -100 0 -99 -245 -1 c-226 0 -245 2 -245 18 0
9 -2 52 -5 95 l-4 77 145 0 144 0 0 130 0 130 120 0 120 0 0 535 -1 535 -119
0 -120 0 -1 93 c0 50 -1 158 -2 240 l-2 147 112 0 113 0 0 -90z m810 -787 c0
-384 3 -796 7 -915 l6 -218 -136 0 -137 0 0 893 c0 490 -3 902 -6 915 l-6 22
136 0 136 0 0 -697z m537 -605 c-4 -288 -7 -524 -7 -525 0 -2 -58 -3 -130 -3
l-130 0 0 525 0 525 137 0 136 0 -6 -522z m-3069 100 l2 -178 -120 0 -120 0 0
173 c0 96 3 177 7 181 4 3 57 5 117 4 l111 -3 3 -177z m1492 -748 l0 -120
-135 0 -135 0 0 115 0 114 133 4 c72 1 133 4 135 5 1 1 2 -52 2 -118z m2430
-260 l0 -120 -145 0 -145 0 0 120 0 120 145 0 145 0 0 -120z m-1100 -265 l0
-145 -140 0 -140 0 0 145 0 145 140 0 140 0 0 -145z m-1870 -5 l0 -140 -125 0
-125 0 0 140 0 140 125 0 125 0 0 -140z m770 0 l0 -140 -120 0 -120 0 0 140 0
140 120 0 120 0 0 -140z m-2220 5 l0 -125 -125 0 -125 0 0 125 0 125 125 0
125 0 0 -125z m760 -280 l0 -135 -125 0 -125 0 0 135 0 135 125 0 125 0 0
-135z m2275 -5 l0 -135 -132 -3 -133 -3 0 134 c0 74 3 137 7 141 4 3 63 5 132
4 l126 -3 0 -135z m1095 -5 l0 -135 -120 -1 c-66 -1 -126 -2 -132 -3 -10 -1
-14 34 -16 137 l-3 137 135 0 136 0 0 -135z m-4340 -255 l0 -130 -125 0 -125
0 0 130 0 130 125 0 125 0 0 -130z m5350 6 l0 -123 -115 -7 c-64 -4 -120 -4
-125 -1 -11 7 -14 238 -3 248 3 4 60 7 125 7 l118 0 0 -124z m-3450 -11 l0
-125 -120 0 -120 0 0 125 0 125 120 0 120 0 0 -125z m540 0 l0 -125 -125 0
-125 0 0 125 0 125 125 0 125 0 0 -125z m1080 -295 l0 -140 -135 0 -135 0 0
140 0 140 135 0 135 0 0 -140z m818 -2 l-3 -133 -127 -3 -128 -3 0 136 0 135
130 0 131 0 -3 -132z m-3364 -194 c3 -9 6 -67 6 -130 l0 -114 -125 0 -125 0
-1 103 c0 56 -2 114 -3 130 l-2 27 122 0 c102 0 123 -3 128 -16z m1466 -114
l0 -130 -130 0 -130 0 0 130 0 130 130 0 130 0 0 -130z m1640 5 l0 -125 -135
0 -135 0 0 125 0 125 135 0 135 0 0 -125z"/>
<path d="M4490 8238 l0 -158 130 0 130 0 0 158 0 157 -130 1 -130 0 0 -158z"/>
<path d="M7960 3752 l0 -98 128 1 127 0 0 95 0 95 -127 3 -128 3 0 -99z"/>
<path d="M8560 3630 l0 -220 -2625 0 -2624 0 -3 103 -3 102 -350 0 -350 0 -3
-102 -3 -103 -224 0 -224 0 -3 113 -3 112 -73 3 -72 3 0 94 0 95 -200 0 -200
0 0 -95 0 -95 -119 0 c-70 0 -121 -4 -123 -10 -2 -5 -2 -109 0 -230 l3 -220
124 0 125 0 0 -384 0 -384 119 -1 c79 -1 122 2 127 10 16 27 24 -25 24 -168
l0 -153 130 0 130 0 0 -110 0 -110 475 0 474 0 3 -132 3 -133 935 -2 c514 -1
1558 1 2320 5 l1385 7 3 130 3 131 47 0 c26 -1 215 0 420 2 l372 2 0 108 0
107 130 0 130 0 0 153 0 152 140 0 140 0 0 385 0 384 113 3 112 3 3 223 2 222
-115 0 c-103 0 -115 2 -116 18 0 9 0 59 1 110 l1 92 -280 0 -281 0 0 -220z
m280 -560 l0 -120 -135 0 -135 0 0 113 c0 63 3 117 7 120 3 4 64 7 135 7 l128
0 0 -120z m-5990 -205 l0 -125 -130 0 -130 0 0 125 0 125 130 0 130 0 0 -125z
m4568 -2 l-3 -128 -122 -3 -123 -3 0 131 0 130 125 0 126 0 -3 -127z m-1888
-273 l0 -140 -125 0 -125 0 0 140 0 140 125 0 125 0 0 -140z m810 0 l0 -140
-119 0 -120 0 -3 136 c-2 75 -1 138 1 140 2 2 58 4 123 4 l118 0 0 -140z
m-1602 1 c2 -93 -1 -126 -10 -133 -7 -4 -59 -8 -115 -8 l-103 0 0 135 0 136
113 -3 112 -3 3 -124z m3480 -8 l3 -133 -124 0 -124 0 -7 -31 c-3 -17 -6 -92
-6 -166 l0 -134 -127 3 -128 3 -3 148 -3 147 121 0 120 0 0 150 0 151 138 -3
137 -3 3 -132z m-3698 -313 l0 -140 -135 0 -135 0 0 140 0 140 135 0 135 0 0
-140z m2251 123 c3 -10 3 -73 1 -140 l-4 -123 -134 0 -134 0 0 140 0 140 134
0 c119 0 134 -2 137 -17z"/>
<path d="M10080 80 l0 -80 80 0 80 0 0 80 0 80 -80 0 -80 0 0 -80z"/>
</g>
</svg>
